<?xml version="1.0" encoding="utf-8"?>
<!-- Generator: Adobe Illustrator 18.0.0, SVG Export Plug-In . SVG Version: 6.00 Build 0)  -->
<svg version="1.2" baseProfile="tiny" id="图层_1"
	 xmlns="http://www.w3.org/2000/svg" xmlns:xlink="http://www.w3.org/1999/xlink" x="0px" y="0px" viewBox="0 0 194 71.4"
	 xml:space="preserve">
<g>
	<line fill="none" stroke="#FFFFFF" stroke-miterlimit="10" x1="49.2" y1="25.6" x2="47.7" y2="27.1"/>
	<line fill="none" stroke="#FFFFFF" stroke-miterlimit="10" x1="53.1" y1="25.6" x2="50.1" y2="28.7"/>
	<line fill="none" stroke="#FFFFFF" stroke-miterlimit="10" x1="56.8" y1="25.9" x2="52.3" y2="30.5"/>
	<line fill="none" stroke="#FFFFFF" stroke-miterlimit="10" x1="60.4" y1="26.4" x2="54.5" y2="32.3"/>
	<line fill="none" stroke="#FFFFFF" stroke-miterlimit="10" x1="63.7" y1="27.1" x2="56.5" y2="34.3"/>
	<line fill="none" stroke="#FFFFFF" stroke-miterlimit="10" x1="66.9" y1="27.9" x2="58.5" y2="36.3"/>
	<line fill="none" stroke="#FFFFFF" stroke-miterlimit="10" x1="69.9" y1="28.9" x2="60.3" y2="38.4"/>
	<line fill="none" stroke="#FFFFFF" stroke-miterlimit="10" x1="72.7" y1="30.1" x2="62.1" y2="40.7"/>
	<line fill="none" stroke="#FFFFFF" stroke-miterlimit="10" x1="75.4" y1="31.4" x2="63.7" y2="43.1"/>
	<line fill="none" stroke="#FFFFFF" stroke-miterlimit="10" x1="77.9" y1="32.9" x2="65.2" y2="45.6"/>
	<line fill="none" stroke="#FFFFFF" stroke-miterlimit="10" x1="80.2" y1="34.6" x2="70.4" y2="44.4"/>
	<line fill="none" stroke="#FFFFFF" stroke-miterlimit="10" x1="82.4" y1="36.4" x2="78.6" y2="40.2"/>
	<line fill="none" stroke="#FFFFFF" stroke-miterlimit="10" x1="119.1" y1="35.7" x2="115.9" y2="38.8"/>
	<line fill="none" stroke="#FFFFFF" stroke-miterlimit="10" x1="129.1" y1="29.7" x2="118.8" y2="39.9"/>
	<line fill="none" stroke="#FFFFFF" stroke-miterlimit="10" x1="135.5" y1="27.3" x2="121.7" y2="41.1"/>
	<line fill="none" stroke="#FFFFFF" stroke-miterlimit="10" x1="141" y1="25.8" x2="124.4" y2="42.4"/>
	<line fill="none" stroke="#FFFFFF" stroke-miterlimit="10" x1="145.8" y1="25" x2="127" y2="43.8"/>
	<line fill="none" stroke="#FFFFFF" stroke-miterlimit="10" x1="135" y1="43.8" x2="132" y2="46.8"/>
	<g>
		<path fill="none" stroke="#FFFFFF" stroke-width="2" stroke-miterlimit="10" d="M49.9,62.1c-5.2-11.5-6.6-24-4.5-36.4
			c10.4-0.4,20.6,0.6,30.5,6c2.7,1.5,6.3,4.2,8.4,6.6"/>
		<path fill="none" stroke="#FFFFFF" stroke-width="2" stroke-miterlimit="10" d="M115.7,38.8C125.9,28.3,143,24,154.6,24.6
			c0.9,11.4-1.5,25-6.4,35.2"/>
		<path fill="none" stroke="#FFFFFF" stroke-width="2" stroke-miterlimit="10" d="M45.4,25.7c8.9,5.2,16.5,13.1,20.8,21.9"/>
		<path fill="none" stroke="#FFFFFF" stroke-width="2" stroke-miterlimit="10" d="M45.4,67.4C59.2,49.8,77.2,36,99.5,35.9
			c20.3,0,40.5,14.2,55.2,30.6"/>
		<path fill="none" stroke="#FFFFFF" stroke-width="2" stroke-miterlimit="10" d="M154.6,24.6c-8.3,4.6-17,14.2-21.7,22.8"/>
	</g>
	<line fill="none" stroke="#FFFFFF" stroke-miterlimit="10" x1="150.2" y1="24.6" x2="129.5" y2="45.3"/>
</g>
<g>
	<path fill="#FFFFFF" d="M82.2,12.3c-0.5-2.5-3-4.2-5.6-4.1c-4.5,0.1-6.5,3.8-6.3,8.1c0.1,3.9,2.5,6.9,6.4,6.7
		c3-0.1,4.8-2.2,5.5-5.2l2,0.4c-0.4,2-1.3,3.6-2.6,4.8c-1.3,1.1-2.9,1.8-4.9,1.9c-1.6,0.1-4.2-0.3-6.2-2.3c-1.3-1.3-2.2-3.2-2.4-6.1
		c-0.1-2.4,0.3-5,1.8-7c1.3-1.9,3.4-3.1,6.4-3.2c1.8-0.1,3.7,0.4,5.1,1.4c1.5,1,2.4,2.5,2.7,4.2L82.2,12.3z"/>
	<path fill="#FFFFFF" d="M97.2,24.6h-2.1v-1c-1,0.8-2.4,1.3-4.4,1.3c-2.5,0-4-1.3-4.1-3.5c-0.2-4.2,4.2-4.8,8.5-4.7v-0.5
		c0-2.3-1-3.2-2.9-3.2h-0.1c-2,0-3.2,0.9-3.4,2.8l-2-0.3c0.2-2.4,2-4.1,5.2-4.1h0.6c3,0,4.6,1.6,4.6,4.4V24.6z M95.2,21.9v-3.6
		c-4-0.1-6.5,0.6-6.3,3C89.2,24.5,93.5,23.4,95.2,21.9z"/>
	<path fill="#FFFFFF" d="M101.4,7.6h2.1v3.8h2.1v1.7h-2.1v9.5c0,0.3,0.2,0.5,0.5,0.5h1.6v1.7h-2.9c-0.7,0-1.3-0.6-1.3-1.3V13.1H99
		l0.7-1.7h1.7V7.6z"/>
	<path fill="#FFFFFF" d="M109.7,6.4v9.8c0,4,1,6.8,5.3,6.8c4.4,0,5-2.6,5-6.8V6.4h2.1v9.8c0,5.7-1.5,8.7-7.2,8.9
		c-5.7,0.1-7.4-3.7-7.4-8.9V6.4H109.7z"/>
	<path fill="#FFFFFF" d="M126.5,6.3v18.6h-2.2V6.3H126.5z"/>
</g>
</svg>
